<?xml version="1.0" encoding="UTF-8"?>
<svg version="1.1" xmlns="http://www.w3.org/2000/svg" width="216" height="216">
<path d="M0 0 C1.36277828 -0.00571294 2.72555179 -0.01268075 4.08831787 -0.02079773 C7.76616198 -0.0386439 11.44376639 -0.03757684 15.12164068 -0.03185534 C18.20287968 -0.02875061 21.28407348 -0.03487025 24.36530602 -0.04089409 C31.64038597 -0.05491008 38.91534843 -0.0534029 46.19042969 -0.04199219 C53.67101627 -0.0305177 61.15124405 -0.04458188 68.63178337 -0.07138866 C75.07711954 -0.09361254 81.52234365 -0.10016793 87.96771538 -0.09431225 C91.80719675 -0.09095692 95.64644828 -0.09326188 99.48589706 -0.11056328 C103.09928834 -0.12613731 106.71215215 -0.12196274 110.32552338 -0.10325813 C112.2663711 -0.09787103 114.20724312 -0.11200703 116.14804077 -0.12695312 C129.72012871 -0.01385239 141.56591852 4.82620806 151.55126953 14.09155273 C161.85311401 24.99693962 164.75722871 37.58047531 164.70532227 52.1027832 C164.7110352 53.46556149 164.71800301 54.82833499 164.72612 56.19110107 C164.74396617 59.86894518 164.74289911 63.54654959 164.73717761 67.22442389 C164.73407288 70.30566288 164.74019252 73.38685669 164.74621636 76.46808922 C164.76023235 83.74316918 164.75872517 91.01813163 164.74731445 98.29321289 C164.73583996 105.77379948 164.74990414 113.25402725 164.77671093 120.73456657 C164.7989348 127.17990275 164.8054902 133.62512685 164.79963452 140.07049859 C164.79627919 143.90997995 164.79858415 147.74923148 164.81588554 151.58868027 C164.83145957 155.20207155 164.82728501 158.81493535 164.8085804 162.42830658 C164.80319329 164.36915431 164.81732929 166.31002632 164.83227539 168.25082397 C164.71917466 181.82291191 159.87911421 193.66870172 150.61376953 203.65405273 C139.70838265 213.95589721 127.12484696 216.86001191 112.60253906 216.80810547 C111.23976078 216.8138184 109.87698728 216.82078621 108.51422119 216.8289032 C104.83637708 216.84674937 101.15877267 216.84568231 97.48089838 216.83996081 C94.39965938 216.83685608 91.31846558 216.84297572 88.23723304 216.84899956 C80.96215309 216.86301555 73.68719063 216.86150837 66.41210938 216.85009766 C58.93152279 216.83862316 51.45129501 216.85268735 43.9707557 216.87949413 C37.52541952 216.901718 31.08019542 216.9082734 24.63482368 216.90241772 C20.79534232 216.89906239 16.95609078 216.90136735 13.116642 216.91866875 C9.50325072 216.93424278 5.89038691 216.93006821 2.27701569 216.9113636 C0.33616796 216.9059765 -1.60470406 216.92011249 -3.54550171 216.93505859 C-17.11758964 216.82195786 -28.96337946 211.98189741 -38.94873047 202.71655273 C-49.25057495 191.81116585 -52.15468965 179.22763016 -52.1027832 164.70532227 C-52.10849614 163.34254398 -52.11546395 161.97977048 -52.12358093 160.61700439 C-52.1414271 156.93916028 -52.14036004 153.26155588 -52.13463855 149.58368158 C-52.13153382 146.50244259 -52.13765345 143.42124878 -52.14367729 140.34001625 C-52.15769328 133.06493629 -52.15618611 125.78997383 -52.14477539 118.51489258 C-52.1333009 111.03430599 -52.14736508 103.55407821 -52.17417186 96.0735389 C-52.19639574 89.62820272 -52.20295114 83.18297862 -52.19709545 76.73760688 C-52.19374013 72.89812552 -52.19604509 69.05887398 -52.21334648 65.2194252 C-52.22892051 61.60603392 -52.22474594 57.99317012 -52.20604134 54.37979889 C-52.20065423 52.43895116 -52.21479023 50.49807915 -52.22973633 48.55728149 C-52.1166356 34.98519356 -47.27657515 23.13940375 -38.01123047 13.15405273 C-27.10584359 2.85220826 -14.52230789 -0.05190644 0 0 Z " fill="#774FFE" transform="translate(51.69873046875,-0.404052734375)"/>
<path d="M0 0 C7.89426438 6.37486622 12.80560508 13.41681525 16 23 C16 26.3 16 29.6 16 33 C6.43 33 -3.14 33 -13 33 C-13.99 30.03 -14.98 27.06 -16 24 C-20.81043511 18.92954137 -26.09772766 17.88074613 -32.875 17.625 C-40.03394747 17.7671131 -44.50698599 19.44466064 -49.5 24.5625 C-51.63274816 29.45004787 -51.75919078 33.74827818 -51 39 C-49.04992737 43.29015979 -46.5134441 46.07010339 -42.28515625 48.26953125 C-38.2547402 49.55788647 -34.09276458 49.47461499 -29.890625 49.67578125 C-18.7210116 50.60658237 -8.43598218 53.87754454 1 60 C2.36125 60.86625 2.36125 60.86625 3.75 61.75 C12.01393558 70.01393558 17.14227743 79.86566519 17.375 91.625 C16.94193277 103.82306028 13.63501539 112.90213689 5.26171875 121.89453125 C-5.44242211 131.85918051 -18.82417722 135 -33 135 C-33 126.42 -33 117.84 -33 109 C-29.37 108.01 -25.74 107.02 -22 106 C-17.93889025 103.79132628 -15.69598933 102.27783024 -14 98 C-13.3781577 93.666741 -12.99230928 89.07367759 -14.9453125 85.0546875 C-20.23641581 78.43248902 -26.13981832 77.4549995 -34.0625 76.5625 C-47.01667429 74.88212623 -58.21325584 71.76492576 -69 64 C-69 63.34 -69 62.68 -69 62 C-69.89525391 61.62488281 -69.89525391 61.62488281 -70.80859375 61.2421875 C-75.6608703 58.49169919 -78.22811954 53.16356083 -80.05078125 48.0546875 C-83.1101917 36.71601938 -83.20608768 24.60079814 -77.36328125 14.0625 C-69.64845866 2.39079132 -59.08261894 -4.9643835 -45.5 -8 C-29.21658247 -10.5985972 -14.09623397 -9.03604741 0 0 Z " fill="#FAFAFC" transform="translate(142,45)"/>
</svg>
